<svg width="1000" height="1000" viewBox="0 0 1000 1000" fill="none" xmlns="http://www.w3.org/2000/svg">
<path fill-rule="evenodd" clip-rule="evenodd" d="M600 700C627.614 700 650 722.385 650 750C650 777.614 627.614 800 600 800V700ZM650.001 700C677.615 700 700.001 722.386 700.001 750C700.001 777.614 677.615 799.999 650.001 800V700Z" fill="url(#paint0_linear_246_93)"/>
<path fill-rule="evenodd" clip-rule="evenodd" d="M700.001 600C700.001 627.614 677.615 649.999 650.001 649.999C622.603 649.999 600.352 627.962 600.006 600.646L600.001 600L599.997 599.073C599.817 579.618 593.965 560.63 583.149 544.442C572.161 527.998 556.542 515.181 538.27 507.612C519.997 500.044 499.891 498.062 480.492 501.921C461.095 505.779 443.276 515.304 429.291 529.289C415.306 543.274 405.782 561.092 401.923 580.49C398.065 599.888 400.046 619.995 407.615 638.268C415.183 656.54 428 672.158 444.445 683.146C460.633 693.963 479.621 699.815 499.075 699.995L500.002 700C527.616 700.001 550.001 722.385 550.001 749.999C550.001 777.613 527.616 799.997 500.002 799.998V799.999C460.446 799.999 421.778 788.269 388.888 766.293C355.998 744.317 330.363 713.081 315.226 676.536C300.088 639.991 296.128 599.777 303.845 560.981C311.562 522.185 330.61 486.549 358.58 458.578C386.551 430.608 422.188 411.56 460.984 403.843C499.78 396.126 539.993 400.086 576.538 415.224C584.634 418.577 592.469 422.446 600.001 426.795V300C600.001 244.772 644.773 200 700.001 200V600Z" fill="url(#paint1_linear_246_93)"/>
<path d="M393.934 706.066C374.408 725.592 342.074 725.786 327.986 702.036C316.488 682.651 308.287 661.358 303.843 639.018C296.126 600.222 300.087 560.008 315.224 523.463C330.362 486.918 355.996 455.682 388.886 433.706C407.825 421.051 428.681 411.794 450.518 406.218C477.274 399.386 500 422.386 500 450C500 477.614 476.29 499.003 452.057 512.242C449.459 513.661 446.918 515.199 444.443 516.853C427.998 527.841 415.181 543.459 407.612 561.731C400.043 580.004 398.063 600.111 401.921 619.509C402.502 622.429 403.211 625.313 404.045 628.153C411.819 654.651 413.46 686.539 393.934 706.066Z" fill="url(#paint2_linear_246_93)"/>
<path d="M357.946 551.827C331.794 542.959 317.311 514.051 332.373 490.907C340.399 478.575 349.789 467.124 360.398 456.782C382.999 434.752 410.493 418.383 440.633 409.014C470.772 399.645 502.701 397.543 533.809 402.878C548.411 405.383 562.638 409.493 576.241 415.102C601.77 425.629 606.227 457.653 589.711 479.784L587.991 482.09C572.426 502.948 542.555 505.839 516.904 501.439C501.35 498.771 485.386 499.823 470.316 504.507C455.246 509.191 441.499 517.376 430.199 528.391C411.562 546.557 385.317 561.109 360.67 552.751L357.946 551.827Z" fill="url(#paint3_linear_246_93)"/>
<path d="M474.008 452.269C469.223 425.072 487.619 398.483 515.154 400.575C529.808 401.689 544.345 404.418 558.495 408.746C588.66 417.972 616.215 434.202 638.909 456.111C661.603 478.02 678.794 504.986 689.076 534.808C693.899 548.797 697.138 563.229 698.767 577.835C701.827 605.279 675.902 624.6 648.554 620.775L645.679 620.373C619.918 616.77 603.016 591.994 594.538 567.404C589.397 552.493 580.802 539.01 569.454 528.055C558.107 517.101 544.33 508.986 529.247 504.373C504.374 496.765 479.018 480.746 474.511 455.128L474.008 452.269Z" fill="url(#paint4_linear_246_93)"/>
<path d="M600 300H700V450C644.772 450 600 405.228 600 350V300Z" fill="url(#paint5_linear_246_93)"/>
<defs>
<linearGradient id="paint0_linear_246_93" x1="794.534" y1="749.979" x2="457.989" y2="749.979" gradientUnits="userSpaceOnUse">
<stop stop-color="#D61515"/>
<stop offset="1" stop-color="#FFEC42"/>
</linearGradient>
<linearGradient id="paint1_linear_246_93" x1="500.002" y1="200" x2="500.002" y2="799.999" gradientUnits="userSpaceOnUse">
<stop stop-color="#FFC642"/>
<stop offset="1" stop-color="#E31212"/>
</linearGradient>
<linearGradient id="paint2_linear_246_93" x1="492" y1="409" x2="318.5" y2="735" gradientUnits="userSpaceOnUse">
<stop stop-color="#DF6226" stop-opacity="0"/>
<stop offset="1" stop-color="#834B4B" stop-opacity="0.25"/>
</linearGradient>
<linearGradient id="paint3_linear_246_93" x1="600.499" y1="439.5" x2="324.5" y2="520.5" gradientUnits="userSpaceOnUse">
<stop stop-color="#F1702B" stop-opacity="0"/>
<stop offset="1" stop-color="#D61515" stop-opacity="0.25"/>
</linearGradient>
<linearGradient id="paint4_linear_246_93" x1="464.5" y1="446" x2="627.999" y2="502.5" gradientUnits="userSpaceOnUse">
<stop stop-color="#FFEC42" stop-opacity="0.25"/>
<stop offset="1" stop-color="#EC4D22" stop-opacity="0"/>
</linearGradient>
<linearGradient id="paint5_linear_246_93" x1="650" y1="300" x2="650" y2="450" gradientUnits="userSpaceOnUse">
<stop stop-color="#FBAD3C" stop-opacity="0"/>
<stop offset="1" stop-opacity="0.08"/>
</linearGradient>
</defs>
</svg>
