<svg width="467" height="467" viewBox="0 0 467 467" fill="none" xmlns="http://www.w3.org/2000/svg">
<g clip-path="url(#clip0_250_70)">
<path d="M0 0L0 466.67L466.67 466.67L466.67 0L0 0ZM182.422 361.195C182.422 387.39 161.187 408.625 134.992 408.625C108.797 408.625 87.5625 387.39 87.5625 361.195V324.711C87.5625 298.516 108.797 277.281 134.992 277.281C161.187 277.281 182.422 298.516 182.422 324.711V361.195ZM304.645 361.195C304.645 387.39 283.41 408.625 257.215 408.625C231.02 408.625 209.785 387.39 209.785 361.195V228.027C209.785 201.833 231.02 180.598 257.215 180.598C283.41 180.598 304.645 201.833 304.645 228.027V361.195ZM437.812 361.195C437.812 387.39 416.578 408.625 390.383 408.625C364.188 408.625 342.953 387.39 342.953 361.195V145.938C342.953 119.743 364.188 98.5078 390.383 98.5078C416.578 98.5078 437.812 119.743 437.812 145.938V361.195Z" fill="black"/>
</g>
<defs>
<clipPath id="clip0_250_70">
<rect width="466.667" height="466.667" fill="white" transform="matrix(0 -1 -1 0 466.666 466.667)"/>
</clipPath>
</defs>
</svg>
